<?xml version="1.0" standalone="no"?>
<!DOCTYPE svg PUBLIC "-//W3C//DTD SVG 20010904//EN"
 "http://www.w3.org/TR/2001/REC-SVG-20010904/DTD/svg10.dtd">
<svg version="1.0" xmlns="http://www.w3.org/2000/svg"
 width="512.000000pt" height="512.000000pt" viewBox="0 0 512.000000 512.000000"
 preserveAspectRatio="xMidYMid meet">
<metadata>
Created by potrace 1.14, written by Peter Selinger 2001-2017
</metadata>
<g transform="translate(0.000000,512.000000) scale(0.100000,-0.100000)"
fill="#000000" stroke="none">
<path d="M393 5106 c-186 -45 -345 -207 -382 -388 -8 -38 -11 -677 -9 -2183
l3 -2130 22 -60 c67 -175 220 -306 393 -335 46 -8 684 -10 2180 -8 l2115 3 68
27 c86 35 141 73 205 143 60 66 106 156 122 240 8 44 10 633 8 2180 l-3 2120
-23 59 c-64 169 -213 300 -380 335 -82 17 -4248 14 -4319 -3z m968 -1766 c183
-35 324 -176 347 -347 l9 -63 -96 0 -96 0 -13 53 c-33 142 -179 224 -351 196
-133 -21 -210 -90 -219 -195 -6 -74 17 -132 74 -184 52 -48 117 -79 310 -150
226 -82 329 -156 388 -280 29 -60 31 -73 31 -170 -1 -133 -23 -195 -100 -279
-100 -107 -225 -155 -405 -155 -174 0 -285 40 -391 141 -81 77 -139 207 -139
313 l0 30 94 0 94 0 7 -42 c17 -108 90 -210 178 -249 45 -21 68 -24 162 -24
95 0 117 3 163 24 163 74 204 283 78 399 -58 53 -149 99 -316 156 -229 80
-323 147 -383 274 -30 62 -32 75 -32 172 0 87 4 113 22 153 28 58 101 138 159
172 96 56 288 81 425 55z m1299 -32 c11 -26 470 -1503 470 -1512 0 -3 -45 -6
-100 -6 l-99 0 -11 38 c-5 20 -30 105 -54 187 l-43 150 -275 3 -274 2 -55
-187 -55 -188 -101 -3 -101 -3 17 58 c10 32 118 379 241 771 l223 712 104 0
c98 0 104 -1 113 -22z m1030 -343 c96 -201 177 -361 181 -357 4 4 84 167 177
362 l171 355 100 3 101 3 0 -771 0 -770 -90 0 -90 0 0 587 c0 322 -3 583 -7
580 -3 -4 -71 -141 -150 -305 l-143 -297 -72 -2 -73 -3 -145 302 -145 302 -3
-582 -2 -582 -90 0 -90 0 0 770 0 770 98 0 97 0 175 -365z"/>
<path d="M2435 2708 c-59 -200 -110 -369 -113 -375 -3 -10 45 -13 222 -13 149
0 226 4 226 10 0 16 -212 724 -220 733 -3 4 -55 -156 -115 -355z"/>
</g>
</svg>
